HIERARCHY
ROOT Hips
{
	OFFSET 0.000000 0.000000 0.000000
	CHANNELS 6 Xposition Yposition Zposition Zrotation Yrotation Xrotation 
	JOINT LHipJoint
	{
		OFFSET 0.000000 0.000000 0.000000
		CHANNELS 3 Zrotation Yrotation Xrotation
		JOINT LeftUpLeg
		{
			OFFSET 1.363060 -1.794630 0.839290
			CHANNELS 3 Zrotation Yrotation Xrotation
			JOINT LeftLeg
			{
				OFFSET 2.448110 -6.726130 0.000000
				CHANNELS 3 Zrotation Yrotation Xrotation
				JOINT LeftFoot
				{
					OFFSET 2.562200 -7.039590 0.000000
					CHANNELS 3 Zrotation Yrotation Xrotation
					JOINT LeftToeBase
					{
						OFFSET 0.157640 -0.433110 2.322550
						CHANNELS 3 Zrotation Yrotation Xrotation
						End Site
						{
							OFFSET 0.000000 0.000000 0.000000
						}
					}
				}
			}
		}
	}
	JOINT RHipJoint
	{
		OFFSET 0.000000 0.000000 0.000000
		CHANNELS 3 Zrotation Yrotation Xrotation
		JOINT RightUpLeg
		{
			OFFSET -1.305520 -1.794630 0.839290
			CHANNELS 3 Zrotation Yrotation Xrotation
			JOINT RightLeg
			{
				OFFSET -2.542530 -6.985550 0.000000
				CHANNELS 3 Zrotation Yrotation Xrotation
				JOINT RightFoot
				{
					OFFSET -2.568260 -7.056230 0.000000
					CHANNELS 3 Zrotation Yrotation Xrotation
					JOINT RightToeBase
					{
						OFFSET -0.164730 -0.452590 2.363150
						CHANNELS 3 Zrotation Yrotation Xrotation
						End Site
						{
							OFFSET 0.000000 0.000000 0.000000
						}
					}
				}
			}
		}
	}
}
MOTION
Frames: 25
Frame Time: 0.008333
-11.921138 17.175552 -1.121717 21.003564 87.992926 22.414265 -10.544877 1.467996 2.402628 -12.236476 8.189933 -22.925680 -2.422895 -0.367826 10.794361 0.731451 4.910473 -1.179178 0.698900 -0.000000 -31.590300 10.155781 -4.758426 -0.528188 -1.409500 -12.520149 9.140217 0.529313 -2.588237 27.808285 0.395301 17.634327 23.942577 8.854100 -0.000001 -88.237299
-11.764966 17.165388 -1.123673 26.390588 88.041588 27.712597 -10.475596 1.458994 2.310342 -12.401126 8.257485 -22.819524 -2.397163 -0.308863 11.986585 0.729634 4.910853 -1.371563 0.672500 -0.000001 -30.083100 10.411497 -4.818648 -0.518599 -2.179417 -12.890271 8.007597 0.397956 -2.699636 30.204057 0.243518 18.877184 25.752720 10.061900 0.000000 -87.691500
-11.611046 17.156847 -1.124801 30.685123 88.054830 31.920198 -10.378342 1.474545 2.223626 -12.565041 8.340918 -22.700464 -2.372496 -0.250714 13.120360 0.737484 4.952929 -1.623081 0.644200 -0.000000 -28.504100 10.678005 -4.833721 -0.515543 -2.874869 -13.252782 6.827873 0.265244 -2.791157 32.633827 0.075744 19.836556 27.616437 11.190500 0.000000 -86.351900
-11.459412 17.150172 -1.125537 34.141436 88.046548 35.288371 -10.270520 1.506033 2.147756 -12.717755 8.407239 -22.535530 -2.346945 -0.196551 14.161686 0.755626 5.047091 -1.927942 0.615199 0.000000 -26.898099 10.936217 -4.810033 -0.525647 -3.488005 -13.618772 5.614607 0.135682 -2.868502 35.081132 -0.103199 20.393065 29.469961 12.123000 -0.000000 -84.193500
-11.310035 17.145529 -1.126346 36.914476 88.029298 37.966748 -10.163461 1.546761 2.085501 -12.847490 8.433210 -22.295235 -2.319495 -0.148844 15.084962 0.783697 5.194908 -2.281420 0.584900 0.000000 -25.310000 11.174200 -4.753886 -0.554942 -4.013102 -13.999517 4.386237 0.011279 -2.937525 37.524958 -0.288906 20.423026 31.227917 12.720400 -0.000000 -81.258500
-11.162867 17.143181 -1.127687 39.008406 88.000383 39.962853 -10.065448 1.591771 2.041267 -12.947579 8.394205 -21.961424 -2.289464 -0.110321 15.861016 0.823085 5.410092 -2.674315 0.554399 -0.000000 -23.781000 11.384058 -4.669438 -0.603804 -4.444550 -14.389968 3.135824 -0.110135 -3.002774 39.959278 -0.481479 19.805721 32.824412 12.848700 -0.000000 -77.726000
-11.017844 17.143034 -1.129957 40.532784 87.973223 41.374620 -9.982083 1.636780 2.011607 -13.008826 8.292830 -21.514713 -2.257188 -0.081255 16.486286 0.871013 5.673581 -3.104936 0.520400 0.000000 -22.350300 11.561226 -4.562667 -0.677610 -4.784136 -14.802631 1.898151 -0.229336 -3.068443 42.345096 -0.679642 18.468538 34.149319 12.400800 0.000000 -73.829699
-10.874877 17.145287 -1.133514 41.371172 87.937017 42.091937 -9.919912 1.678590 1.997934 -13.028793 8.122572 -20.954669 -2.222467 -0.062776 16.945896 0.928343 5.993289 -3.562751 0.483400 0.000000 -21.049699 11.699969 -4.436788 -0.771308 -5.023289 -15.211702 0.664637 -0.350227 -3.136601 44.669818 -0.887053 16.359610 35.123324 11.315500 -0.000000 -69.852799
-10.733905 17.149808 -1.138566 41.563409 87.897114 42.147881 -9.882100 1.714992 1.995094 -13.004100 7.899515 -20.280216 -2.185870 -0.053840 17.248795 0.992279 6.349689 -4.043449 0.440700 -0.000001 -19.899100 11.798708 -4.296628 -0.885131 -5.164642 -15.614653 -0.539941 -0.473700 -3.208740 46.895670 -1.104586 13.525657 35.649385 9.620100 0.000001 -66.080900
-10.594821 17.156546 -1.145270 41.064217 87.848424 41.498458 -9.871860 1.745026 1.999885 -12.934777 7.638739 -19.501067 -2.147809 -0.053454 17.401144 1.061267 6.733088 -4.538333 0.391600 0.000000 -18.910700 11.855481 -4.146256 -1.014795 -5.207083 -15.992953 -1.708841 -0.600552 -3.285439 48.996810 -1.332247 10.077735 35.646267 7.419100 -0.000000 -62.684399
-10.457553 17.165516 -1.153604 39.808938 87.780234 40.083617 -9.891513 1.769142 2.010043 -12.823156 7.355707 -18.632455 -2.108619 -0.060452 17.408475 1.134389 7.139098 -5.036000 0.336800 0.000000 -18.088000 11.868957 -3.989557 -1.153924 -5.147416 -16.320946 -2.843449 -0.730888 -3.366723 50.953124 -1.567379 6.191645 35.048263 4.886799 -0.000000 -59.685900
-10.321980 17.176503 -1.163490 37.875391 87.690639 37.979391 -9.939035 1.789905 2.020802 -12.672654 7.075197 -17.687995 -2.069413 -0.072476 17.287860 1.208711 7.549467 -5.527689 0.276000 0.000000 -17.424200 11.842950 -3.830332 -1.300207 -4.995917 -16.597069 -3.931894 -0.862493 -3.451494 52.735436 -1.803217 2.123700 33.831411 2.267401 0.000000 -57.045199
-10.188037 17.189311 -1.174718 35.305028 87.571227 35.230494 -10.011679 1.810952 2.029678 -12.487560 6.816896 -16.685831 -2.031114 -0.087516 17.050595 1.282435 7.954784 -6.001828 0.211000 -0.000000 -16.907801 11.781755 -3.671158 -1.448486 -4.757751 -16.810625 -4.975297 -0.992737 -3.537108 54.323952 -2.031544 -1.868327 32.016794 -0.195700 0.000000 -54.628200
-10.055530 17.203760 -1.187028 32.200522 87.417646 31.942413 -10.103734 1.836917 2.034085 -12.271828 6.600843 -15.642717 -1.994822 -0.103478 16.710135 1.353195 8.342260 -6.447145 0.144000 0.000000 -16.524300 11.693045 -3.513681 -1.594469 -4.441251 -16.961014 -5.974030 -1.117311 -3.619353 55.700480 -2.242768 -5.543426 29.675696 -2.290800 0.000001 -52.262800
-9.924358 17.219549 -1.200154 28.647108 87.227544 28.205288 -10.208840 1.872209 2.032415 -12.026400 6.443497 -14.576939 -1.961353 -0.118598 16.279179 1.418725 8.699571 -6.853738 0.077400 0.000000 -16.255300 11.585049 -3.358168 -1.732555 -4.048181 -17.044292 -6.931488 -1.230811 -3.692227 56.850167 -2.428833 -8.731276 26.927840 -3.886700 -0.000000 -49.903201
-9.794339 17.236324 -1.213825 24.773709 87.005871 24.151220 -10.318048 1.920182 2.022977 -11.752257 6.357719 -13.503362 -1.931373 -0.131679 15.772022 1.476420 9.012474 -7.212738 0.014300 0.000000 -16.087500 11.468699 -3.204837 -1.859139 -3.584736 -17.070552 -7.850323 -1.326557 -3.750455 57.764301 -2.581486 -11.319653 23.917607 -4.930400 0.000001 -47.442000
-9.665288 17.253680 -1.227789 20.660489 86.762324 19.864112 -10.423571 1.982490 2.004812 -11.447191 6.351482 -12.435866 -1.905060 -0.142034 15.203708 1.523767 9.266687 -7.518126 -0.043000 0.000000 -16.005000 11.353369 -3.053686 -1.970911 -3.052713 -17.050029 -8.733353 -1.398298 -3.789497 58.438133 -2.695388 -13.278235 20.803252 -5.456199 0.000000 -44.974500
-9.536961 17.271190 -1.241747 16.428259 86.509378 15.470191 -10.516363 2.058131 1.978018 -11.115675 6.424941 -11.386082 -1.882475 -0.150564 14.586796 1.559003 9.453144 -7.763962 -0.091500 -0.000000 -16.002900 11.249154 -2.906880 -2.065410 -2.462125 -17.001982 -9.591654 -1.440537 -3.808845 58.879196 -2.765012 -14.612763 17.718898 -5.543000 0.000000 -42.452800
-9.409185 17.288340 -1.255527 12.062992 86.262728 10.957837 -10.593097 2.145111 1.942764 -10.752343 6.576183 -10.364504 -1.863185 -0.157251 13.939028 1.580005 9.558190 -7.950840 -0.130200 0.000000 -16.074200 11.159988 -2.765502 -2.142399 -1.811953 -16.942572 -10.426315 -1.450684 -3.807856 59.089539 -2.790405 -15.389921 14.801984 -5.314600 0.000000 -40.081800
-9.281775 17.304650 -1.268991 7.549596 86.036598 6.314476 -10.650660 2.240078 1.899937 -10.356420 6.798157 -9.379299 -1.846814 -0.162796 13.277002 1.585566 9.573530 -8.081361 -0.158700 0.000000 -16.215000 11.089152 -2.631822 -2.202857 -1.107540 -16.891948 -11.243084 -1.428366 -3.788913 59.079390 -2.773114 -15.688688 12.143673 -4.890100 0.000000 -37.973600
-9.154478 17.319684 -1.281854 2.931254 85.842551 1.588124 -10.687037 2.337658 1.851774 -9.936533 7.076505 -8.438029 -1.832943 -0.169194 12.612789 1.575994 9.500774 -8.158008 -0.176800 -0.000000 -16.430899 11.038082 -2.510026 -2.246893 -0.360520 -16.866288 -12.055346 -1.374607 -3.757051 58.866390 -2.717000 -15.594515 9.793067 -4.369099 0.000000 -36.151100
-9.027159 17.333027 -1.293997 -1.851674 85.689456 -3.279958 -10.703683 2.433291 1.799769 -9.494114 7.398215 -7.545691 -1.821035 -0.177150 11.961876 1.551657 9.339925 -8.188602 -0.185800 0.000000 -16.723800 11.004675 -2.402510 -2.276976 0.423093 -16.878166 -12.867044 -1.292260 -3.716307 58.464515 -2.629600 -15.205220 7.769897 -3.829800 -0.000000 -34.660700
-8.899600 17.344376 -1.305207 -6.761694 85.582431 -8.250078 -10.703590 2.521636 1.746177 -9.040271 7.745983 -6.704582 -1.810620 -0.188276 11.333026 1.514352 9.100954 -8.179898 -0.187200 -0.000000 -17.097500 10.984735 -2.312360 -2.294565 1.230246 -16.933693 -13.686802 -1.184249 -3.671690 57.893141 -2.519929 -14.612957 6.055944 -3.319800 -0.000001 -33.470700
-8.771813 17.353498 -1.315427 -11.917181 85.522732 -13.443921 -10.690774 2.599424 1.691683 -8.573996 8.107746 -5.914075 -1.801057 -0.202410 10.738744 1.465406 8.788935 -8.142957 -0.183500 -0.000000 -17.553600 10.973235 -2.240214 -2.303289 2.057480 -17.035235 -14.510266 -1.053751 -3.625973 57.165207 -2.398306 -13.907347 4.610107 -2.864500 0.000001 -32.514300
-8.643672 17.360328 -1.324526 -17.253274 85.507805 -18.796496 -10.671046 2.663261 1.638198 -8.109089 8.467355 -5.170544 -1.791822 -0.220632 10.179761 1.407919 8.422609 -8.084208 -0.176100 0.000000 -18.092700 10.962902 -2.186675 -2.304569 2.889539 -17.178186 -15.340692 -0.903347 -3.581952 56.298484 -2.274726 -13.164712 3.375658 -2.471400 -0.000000 -31.707400
